<svg version="1.1" id="Layer_1" xmlns="http://www.w3.org/2000/svg" xmlns:xlink="http://www.w3.org/1999/xlink" x="0px" y="0px"
	 width="100%" viewBox="0 0 371 312" enable-background="new 0 0 371 312" xml:space="preserve">
<path fill="#cfe6da" opacity="1.000000" stroke="none" 
	d="
M372.000000,109.000000 
	C372.000000,177.308517 372.000000,245.117020 372.000000,312.962769 
	C248.403427,312.962769 124.806839,312.962769 1.105126,312.962769 
	C1.105126,209.108246 1.105126,105.216339 1.105126,1.162217 
	C124.666489,1.162217 248.333237,1.162217 372.000000,1.162217 
	C372.000000,36.859737 372.000000,72.679871 372.000000,109.000000 
M223.000641,147.500000 
	C223.000641,157.618896 223.000641,167.737793 223.000641,177.816010 
	C236.311401,180.802490 249.073578,181.086884 262.312195,177.605698 
	C262.312195,148.093185 262.312195,118.822502 262.312195,89.168083 
	C263.390930,90.582802 264.183044,91.435745 264.766144,92.413330 
	C281.194000,119.954872 297.558319,147.534607 314.110168,175.001328 
	C315.173309,176.765549 317.608917,178.707275 319.492798,178.799728 
	C327.981110,179.216278 336.504730,178.841858 345.007263,179.067688 
	C349.406830,179.184540 350.104187,177.112106 350.071777,173.290070 
	C349.913605,154.628876 349.892365,135.964859 350.023285,117.303223 
	C350.263885,83.005363 350.623779,48.708256 351.007935,14.411661 
	C351.038330,11.698208 350.846680,9.441742 347.578522,9.089570 
	C343.658936,8.667197 339.723663,8.032609 335.801270,8.073489 
	C329.203979,8.142248 322.611908,8.679984 316.016785,9.003471 
	C312.605408,9.170798 311.921783,11.090896 311.936493,14.231778 
	C312.051239,38.725822 311.999939,63.220642 311.999939,87.715225 
	C311.999939,91.600479 311.999939,95.485741 311.999939,100.411720 
	C304.403870,87.563522 297.382568,75.717934 290.391174,63.854744 
	C280.478790,47.035187 270.596588,30.197824 260.680481,13.380465 
	C259.033722,10.587600 256.973053,8.799237 253.270874,8.918281 
	C245.098282,9.181067 236.908630,9.128051 228.731506,8.949071 
	C224.296661,8.852001 222.877304,10.442218 222.895706,15.029500 
	C223.071396,58.852436 223.000641,102.676361 223.000641,147.500000 
M108.031136,63.500000 
	C108.031136,73.333420 108.164589,83.169151 107.994675,92.999634 
	C107.814484,103.425514 107.688828,113.871964 106.914085,124.262810 
	C106.011627,136.366638 101.684464,140.618790 89.227486,143.108383 
	C78.379257,145.276459 70.226402,141.208572 66.705307,131.044098 
	C65.079773,126.351608 64.188515,121.182465 64.116463,116.212723 
	C63.809620,95.050377 63.925686,73.881798 63.903194,52.715473 
	C63.888336,38.729687 63.900383,24.743874 63.900383,10.303232 
	C49.504147,7.197149 35.347870,7.226821 20.999273,10.265563 
	C20.999273,40.520329 20.709524,70.346672 21.136292,100.162758 
	C21.316914,112.781853 21.851627,125.604332 24.259392,137.937271 
	C28.529638,159.810120 40.327663,173.495865 63.173340,178.964249 
	C77.025299,182.279877 91.169556,182.095062 105.031898,179.792572 
	C118.517433,177.552689 130.530182,171.789749 138.671967,159.875198 
	C148.112747,146.059708 150.498978,130.173111 150.804688,114.211777 
	C151.446106,80.724190 151.001633,47.215767 150.992340,13.715902 
	C150.992020,12.573793 150.876862,11.431717 150.808777,10.170058 
	C136.494400,7.181469 122.406502,7.374763 108.031136,10.244396 
	C108.031136,27.873379 108.031136,45.186687 108.031136,63.500000 
M165.001251,71.500000 
	C165.001251,106.940567 165.001251,142.381134 165.001251,177.854858 
	C179.615128,180.674393 193.713837,181.084671 208.000107,177.724640 
	C208.000107,175.570374 208.000092,173.752106 208.000092,171.933823 
	C208.000092,121.469101 208.009262,71.004364 207.980026,20.539658 
	C207.978027,17.080242 208.775909,12.918083 207.152756,10.407471 
	C206.060822,8.718491 201.356461,9.364528 198.267929,8.968111 
	C198.103088,8.946954 197.931671,8.965718 197.769989,8.932957 
	C186.786819,6.707335 175.992432,8.178970 165.001251,10.240108 
	C165.001251,30.558672 165.001251,50.529335 165.001251,71.500000 
M111.500000,186.004364 
	C81.409576,186.004364 51.319160,186.004364 21.216034,186.004364 
	C21.216034,189.301926 21.216034,191.909180 21.216034,194.745544 
	C130.818939,194.745544 240.205399,194.745544 349.694336,194.745544 
	C349.694336,191.762939 349.694336,189.041946 349.694336,186.004364 
	C270.425903,186.004364 191.462952,186.004364 111.500000,186.004364 
M248.503433,273.005127 
	C246.994217,270.493347 245.001770,268.147186 244.072830,265.436554 
	C241.901962,259.101837 237.330048,259.526123 232.002319,260.331024 
	C232.002319,272.529114 232.018799,284.485809 231.992752,296.442444 
	C231.984436,300.258453 234.807693,299.958893 237.196106,299.947296 
	C239.682755,299.935272 242.174622,299.741211 242.041138,296.048065 
	C241.867157,291.234283 241.998581,286.409485 241.998581,280.301300 
	C245.200516,285.802429 247.634979,290.010406 250.094879,294.203430 
	C252.151993,297.709930 254.510559,301.129608 259.262817,299.843872 
	C263.984924,298.566315 261.844849,294.387115 261.909515,291.485504 
	C262.141510,281.070923 262.000488,270.648010 262.000488,260.353455 
	C258.298553,260.353455 255.239227,260.353455 251.893082,260.353455 
	C251.893082,266.269592 251.893082,271.837402 251.893082,278.825928 
	C250.466751,276.302887 249.705765,274.956787 248.503433,273.005127 
M279.153503,237.353439 
	C279.765381,232.183472 281.279083,226.922180 280.767029,221.866043 
	C280.085754,215.138992 276.483704,209.909348 269.294220,207.646423 
	C262.492065,205.505386 255.907608,205.919937 249.303253,207.536209 
	C249.303253,220.409515 249.303253,233.142639 249.303253,245.848938 
	C269.460541,247.214523 271.906799,246.568375 279.153503,237.353439 
M67.827217,228.582077 
	C70.039246,232.369522 72.305908,236.126328 74.451187,239.951202 
	C78.164230,246.571304 79.261734,247.078873 86.648201,245.334961 
	C86.648201,232.578293 86.648201,219.860794 86.648201,207.382889 
	C83.222328,207.382889 80.164398,207.382889 76.837852,207.382889 
	C76.837852,213.324768 76.837852,218.885773 76.837852,225.823151 
	C73.603409,220.459473 70.394249,216.481995 68.662018,211.941132 
	C66.236046,205.581635 61.840527,206.845734 57.342369,207.309662 
	C57.342369,220.410141 57.342369,233.128479 57.342369,245.605438 
	C60.758301,245.605438 63.813194,245.605438 67.073448,245.605438 
	C67.073448,239.726883 67.073448,234.242676 67.827217,228.582077 
M345.711121,211.818100 
	C337.895233,204.851074 328.770752,205.559570 319.230835,207.390198 
	C319.230835,220.058624 319.230835,232.775909 319.230835,245.798706 
	C329.685577,247.769409 340.393677,248.815414 347.471313,239.310730 
	C352.562347,232.473892 352.715759,219.963455 345.711121,211.818100 
M53.530556,290.038635 
	C54.989506,292.573181 56.003117,295.586243 58.048977,297.490112 
	C59.671722,299.000244 62.537659,299.517639 64.899307,299.654938 
	C65.507423,299.690277 66.740891,296.674988 66.906090,294.984772 
	C67.228760,291.683533 67.000481,288.328461 67.000465,284.995697 
	C67.000412,276.729553 67.000450,268.463409 67.000450,260.351929 
	C63.623013,260.351929 60.894733,260.351929 57.865101,260.351929 
	C57.865101,266.587372 57.865101,272.476257 57.865101,279.608643 
	C54.616020,274.122681 51.543072,269.905334 49.501705,265.236908 
	C47.052372,259.635498 43.256168,259.031158 37.999607,260.566711 
	C37.999607,272.483429 38.079960,284.298798 37.948406,296.111816 
	C37.911152,299.457184 39.943169,299.919861 42.357262,299.957031 
	C44.990673,299.997528 47.182411,299.468140 47.048607,295.902283 
	C46.858280,290.830048 47.000244,285.745331 47.000244,279.561646 
	C49.397640,283.529663 51.202461,286.516907 53.530556,290.038635 
M146.734009,299.035797 
	C147.156494,297.617889 147.925247,296.204651 147.944565,294.781281 
	C148.059631,286.310211 148.001450,277.836761 148.001450,268.010651 
	C150.464279,269.462891 153.603088,270.707825 153.484192,271.343201 
	C152.779953,275.106567 151.320084,278.728577 149.750122,283.506531 
	C151.054993,286.361115 153.600021,290.470612 154.805115,294.941284 
	C156.248749,300.296936 160.007233,299.984680 163.874756,299.876678 
	C165.220688,299.839050 166.543884,298.988678 168.202911,298.392548 
	C165.383560,293.057159 162.647293,287.879028 159.929474,282.735809 
	C164.308243,278.321198 166.215378,273.439117 163.806702,267.547180 
	C162.046356,263.241180 158.542236,260.618744 154.181000,260.143616 
	C148.966370,259.575531 143.642548,260.009583 137.998734,260.009583 
	C137.998734,271.442047 137.997726,282.391205 137.999100,293.340332 
	C137.999939,300.075653 138.791245,300.684357 146.734009,299.035797 
M113.001053,277.436096 
	C113.001053,271.683105 113.001053,265.930084 113.001053,260.357788 
	C109.271553,260.357788 106.212090,260.357788 102.999237,260.357788 
	C102.999237,269.684692 102.932281,278.654663 103.021286,287.623077 
	C103.087616,294.307129 108.120331,299.337402 115.156448,299.997498 
	C124.601891,300.883667 130.998276,297.659637 131.832458,290.303436 
	C132.957184,280.385040 132.946838,270.337921 133.423859,260.340851 
	C129.038254,260.340851 125.654610,260.340851 122.000404,260.340851 
	C122.000404,268.808228 121.833183,276.941193 122.079430,285.061646 
	C122.183762,288.502197 120.856499,291.084473 117.751419,290.679413 
	C115.972046,290.447296 114.002808,287.474396 113.178810,285.328461 
	C112.399292,283.298370 113.004723,280.736511 113.001053,277.436096 
M41.016720,230.263184 
	C40.807926,233.378876 41.976185,237.351120 36.497162,237.020920 
	C32.297958,236.767822 32.024220,233.841995 32.011642,230.731003 
	C31.980175,222.949203 32.001259,215.167160 32.001259,207.260956 
	C28.465639,207.260956 25.403818,207.260956 21.998745,207.260956 
	C21.998745,215.648361 21.994646,223.778030 21.999838,231.907684 
	C22.005604,240.935440 24.936043,244.703979 33.551861,246.783676 
	C40.780865,248.528625 50.078106,244.164597 50.801102,237.709549 
	C51.931507,227.617020 51.942028,217.399078 52.418022,207.421951 
	C47.955532,207.421951 44.570236,207.421951 41.027626,207.421951 
	C41.027626,215.001389 41.027626,222.158508 41.016720,230.263184 
M195.991440,225.071365 
	C197.458481,220.414246 198.501877,215.382248 194.871826,211.603424 
	C188.191940,204.649780 179.749329,205.350586 171.308975,207.411377 
	C171.308975,220.332367 171.308975,233.052765 171.308975,245.662613 
	C174.691422,245.662613 177.751450,245.662613 181.204285,245.662613 
	C181.204285,235.288025 181.204285,225.247314 181.204285,215.062866 
	C186.187103,216.990295 188.142578,221.551743 184.852402,224.347839 
	C180.722031,227.857986 182.721237,230.819336 184.013046,234.354324 
	C186.740280,241.817383 189.636261,248.833588 199.867416,245.915359 
	C200.012863,245.873886 200.154236,245.818192 200.682281,245.637390 
	C198.695419,241.529236 197.027969,237.274323 194.665482,233.448608 
	C192.727676,230.310547 192.946259,228.046112 195.991440,225.071365 
M171.471176,292.818085 
	C177.927734,299.743347 188.917160,302.399902 197.147049,298.810516 
	C198.044525,298.419128 198.875977,296.791443 198.916733,295.706360 
	C199.104172,290.714508 198.952423,285.711090 199.016479,280.713043 
	C199.063660,277.030762 196.469635,276.995209 193.972626,277.037170 
	C191.511627,277.078552 188.860214,277.055786 188.977112,280.781891 
	C189.082962,284.156189 188.999481,287.536469 188.999481,292.162964 
	C185.672745,290.279877 183.143158,289.405640 181.380630,287.726379 
	C178.343445,284.832672 178.161102,276.710175 180.609772,272.918274 
	C183.404648,268.590302 187.527542,268.072357 191.929367,269.486267 
	C194.533752,270.322784 195.858475,269.742004 195.967224,267.159698 
	C196.054291,265.092072 196.388962,261.860413 195.288498,261.122955 
	C190.805862,258.118958 178.965881,260.148193 174.782486,263.641418 
	C167.836761,269.441223 165.571213,281.562561 171.471176,292.818085 
M312.297546,246.001114 
	C313.510223,245.873734 314.722900,245.746368 316.282349,245.582581 
	C313.101410,235.392410 310.108978,225.660110 307.021667,215.958038 
	C304.089661,206.743958 304.045898,206.753357 294.632690,207.037018 
	C294.152740,207.051468 293.678528,207.255096 293.436279,207.313797 
	C289.451935,220.118408 285.519379,232.756607 281.461487,245.797638 
	C285.379822,245.797638 288.492828,245.797638 291.687256,245.797638 
	C292.305145,243.539474 292.895660,241.381363 293.462982,239.307983 
	C296.856506,239.307983 300.182983,239.307983 303.667847,239.307983 
	C304.307556,241.500916 304.965607,243.756790 305.620331,246.001297 
	C307.729492,246.001297 309.559021,246.001297 312.297546,246.001114 
M204.000015,282.498352 
	C204.000015,287.927185 204.000015,293.356018 204.000015,298.653931 
	C212.388107,298.653931 220.126465,298.653931 227.799713,298.653931 
	C227.799713,295.686401 227.799713,293.070099 227.799713,290.005035 
	C223.533859,290.005035 219.445007,290.005035 215.241425,290.005035 
	C215.241425,287.815582 215.241425,286.084625 215.241425,283.889160 
	C218.555862,283.889160 221.631119,283.889160 224.682526,283.889160 
	C224.682526,280.347931 224.682526,277.281891 224.682526,273.789246 
	C221.278244,273.789246 218.191162,273.789246 214.858444,273.789246 
	C215.053177,271.923920 215.198944,270.527557 215.371643,268.873291 
	C219.677719,268.873291 223.627502,268.873291 227.739197,268.873291 
	C227.739197,265.844238 227.739197,263.119263 227.739197,260.291687 
	C219.748016,260.291687 212.019943,260.291687 204.000015,260.291687 
	C204.000015,267.552460 204.000015,274.525665 204.000015,282.498352 
M317.999451,277.569092 
	C318.455688,274.728302 317.266388,273.697754 314.420044,273.956451 
	C312.006500,274.175812 309.557220,274.001740 306.851990,274.001740 
	C307.059540,271.938416 307.200165,270.540558 307.355377,268.997955 
	C311.033661,268.997955 314.351074,268.926422 317.663940,269.018616 
	C320.808502,269.106110 321.080627,267.161774 321.017090,264.757568 
	C320.954071,262.372498 321.234406,259.943573 317.645172,259.982178 
	C310.879272,260.054962 304.112061,260.003174 297.266907,260.003174 
	C297.266907,273.234802 297.266907,285.948761 297.266907,298.720184 
	C305.261841,298.720184 312.986725,298.720184 320.693115,298.720184 
	C320.693115,295.705200 320.693115,292.978577 320.693115,289.821045 
	C315.978546,289.821045 311.566803,289.821045 306.947998,289.821045 
	C307.055267,287.628601 307.140167,285.893005 307.244476,283.761597 
	C310.952972,283.761597 314.211456,283.761597 318.000000,283.761597 
	C318.000000,281.726074 318.000000,280.109406 317.999451,277.569092 
M131.056305,235.635437 
	C134.106445,226.290558 137.156586,216.945694 140.325378,207.237274 
	C136.388809,207.237274 132.964249,207.237274 129.544357,207.237274 
	C127.266617,215.060715 125.002884,222.836014 122.628479,230.991470 
	C121.038071,225.467316 119.678619,220.462906 118.153664,215.509430 
	C115.303688,206.251892 115.263634,206.263397 105.629951,207.213486 
	C105.485252,207.227737 105.351845,207.356537 104.964912,207.566742 
	C108.713875,219.536621 112.452461,231.569244 116.299133,243.567245 
	C116.596169,244.493713 117.509018,245.614761 118.380432,245.901520 
	C124.094650,247.781982 128.135590,245.548416 129.978073,239.705902 
	C130.319763,238.622391 130.656464,237.537323 131.056305,235.635437 
M213.437119,206.916809 
	C207.571487,207.640289 203.806473,210.744568 203.014832,215.510040 
	C201.955887,221.884491 204.710434,227.276764 210.278534,229.624268 
	C212.223145,230.444138 214.350861,230.926468 216.130173,232.001266 
	C217.036789,232.548904 217.754440,234.057129 217.783188,235.151474 
	C217.798782,235.745621 216.182770,236.920349 215.316818,236.907135 
	C211.502991,236.848999 207.694305,236.453735 203.501678,236.153259 
	C203.088272,237.675919 202.110031,239.680893 202.156616,241.661789 
	C202.188385,243.012512 203.407211,245.206802 204.516495,245.516815 
	C210.884476,247.296539 217.191086,247.996124 223.410950,244.261017 
	C230.501144,240.003235 231.247391,229.293564 224.268982,224.765991 
	C220.661652,222.425568 216.679184,220.663345 212.616898,218.507584 
	C216.535019,212.122940 221.134766,216.201859 225.543091,217.065582 
	C226.358139,214.166306 227.134842,211.403366 228.184708,207.668777 
	C223.336334,207.237885 218.728119,206.828323 213.437119,206.916809 
M79.790825,300.000183 
	C81.619438,300.000305 83.451950,300.078125 85.275955,299.986481 
	C91.532501,299.672150 97.099083,295.530701 97.982475,290.601227 
	C99.398888,282.697479 97.058067,278.416443 89.654800,275.396271 
	C88.155640,274.784698 86.470619,274.449493 85.190514,273.538361 
	C84.210045,272.840485 82.959213,271.170776 83.219971,270.410553 
	C83.574677,269.376404 85.241455,268.185394 86.369926,268.160400 
	C88.240379,268.118927 90.130745,269.302368 92.011749,269.299652 
	C93.334618,269.297729 95.301773,268.518341 95.833313,267.491730 
	C96.732986,265.754150 96.724937,263.546509 97.236717,260.792786 
	C92.015854,260.502838 87.466705,259.946320 82.934929,260.063263 
	C74.111244,260.290863 70.809486,269.076569 72.451706,274.899841 
	C73.662170,279.192139 76.593910,281.569672 80.743584,283.132263 
	C83.543320,284.186554 88.068199,284.409485 86.438248,290.839813 
	C82.167992,290.366058 77.849121,289.886902 73.214500,289.372742 
	C72.863152,290.474854 72.399033,291.825684 72.004860,293.196594 
	C71.611023,294.566345 71.287193,295.956177 70.835640,297.715210 
	C73.672432,298.517212 76.284286,299.255615 79.790825,300.000183 
M325.967926,298.898621 
	C329.711151,299.266357 333.458160,299.969421 337.196808,299.927521 
	C343.694489,299.854706 348.878479,296.156555 349.988800,291.253265 
	C352.123535,281.826050 347.360229,277.165680 340.443909,274.853210 
	C338.404663,274.171387 335.197021,271.161713 335.507080,270.328125 
	C336.593292,267.408051 339.399506,267.473328 342.105621,268.907532 
	C342.783600,269.266846 343.788269,269.375031 344.526215,269.172943 
	C345.730469,268.843109 347.448669,268.449524 347.860474,267.571655 
	C348.707581,265.766083 348.834412,263.622589 349.443939,260.736145 
	C344.020874,260.466644 339.305115,259.952545 334.604431,260.065582 
	C327.895477,260.226959 323.635132,266.775909 324.531158,273.287964 
	C325.448334,279.953613 330.144684,281.800751 335.121490,284.077118 
	C336.794861,284.842560 337.921875,286.802490 339.298584,288.216522 
	C337.258209,289.132080 335.233063,290.739288 333.173492,290.784576 
	C330.712585,290.838715 328.222290,289.556610 325.430176,288.764038 
	C324.769165,291.328827 323.990967,293.633179 323.671112,295.999481 
	C323.567200,296.768372 324.661743,297.699249 325.967926,298.898621 
M142.999939,211.637024 
	C142.999939,223.036865 142.999939,234.436722 142.999939,245.999466 
	C150.172836,245.999466 156.652191,245.889984 163.125122,246.046021 
	C166.330917,246.123276 167.095688,244.606140 167.043167,241.779022 
	C166.992355,239.042984 166.913681,236.750259 163.167343,236.962219 
	C159.896530,237.147278 156.606949,237.000793 153.000122,237.000793 
	C153.000122,235.543488 152.979202,234.581146 153.005600,233.620132 
	C153.036026,232.511490 153.108215,231.404007 153.176697,230.000229 
	C154.835632,230.000229 156.137070,230.003113 157.438492,229.999420 
	C158.769211,229.995636 160.232574,230.326080 161.390503,229.875076 
	C162.398544,229.482452 163.638214,228.291626 163.787949,227.303802 
	C165.273331,217.504364 157.001022,222.456696 153.290146,220.578690 
	C153.290146,219.060684 153.290146,217.670120 153.290146,215.837341 
	C157.639450,215.837341 161.713821,215.837341 165.661682,215.837341 
	C165.661682,212.646240 165.661682,209.919800 165.661682,207.001389 
	C158.852982,207.001389 152.375046,207.161331 145.910828,206.932999 
	C142.744949,206.821167 142.871185,208.576996 142.999939,211.637024 
M288.369049,260.000000 
	C280.619110,260.000000 272.869171,260.000000 265.210693,260.000000 
	C265.210693,263.340271 265.210693,265.954559 265.210693,269.018311 
	C268.145905,269.018311 270.881531,269.018311 273.988922,269.018311 
	C273.988922,279.228912 273.988922,288.994171 273.988922,299.275208 
	C277.809265,299.275208 281.247101,299.275208 285.108276,299.275208 
	C285.108276,288.811035 285.108276,279.059875 285.108276,268.871216 
	C288.263184,268.871216 290.999634,268.871216 293.821564,268.871216 
	C293.821564,265.812622 293.821564,263.206665 293.821564,260.270050 
	C292.222809,260.173859 290.778717,260.086945 288.369049,260.000000 
M237.552582,206.999756 
	C236.121658,207.086487 234.690750,207.173203 233.295624,207.257767 
	C233.295624,220.313431 233.295624,233.010773 233.295624,245.686371 
	C236.984650,245.686371 240.371323,245.686371 243.704071,245.686371 
	C243.704071,232.670654 243.704071,219.970795 243.704071,206.999756 
	C241.775070,206.999756 240.138931,206.999756 237.552582,206.999756 
M91.980186,241.366547 
	C92.051826,242.813599 92.123474,244.260651 92.200813,245.822769 
	C95.612404,245.822769 98.714890,245.822769 102.072594,245.822769 
	C102.072594,232.826309 102.072594,220.033173 102.072594,207.263885 
	C98.440018,207.263885 95.361450,207.263885 91.980148,207.263885 
	C91.980148,218.493423 91.980148,229.441803 91.980186,241.366547 
M22.000906,263.678894 
	C22.000828,273.829315 22.148748,283.983032 21.923992,294.128479 
	C21.840261,297.907990 22.626793,300.041046 26.875116,300.049103 
	C30.906330,300.056763 32.320995,298.441620 32.083221,294.379791 
	C31.753159,288.741486 32.000252,283.069397 32.000252,277.411774 
	C32.000256,271.657104 32.000252,265.902405 32.000252,260.005341 
	C29.002584,260.005341 26.640669,259.751617 24.384418,260.129211 
	C23.471554,260.282013 22.789326,261.812866 22.000906,263.678894 
z"/>
<path fill="#084192" opacity="1.000000" stroke="none" 
	d="
M223.000641,147.000000 
	C223.000641,102.676361 223.071396,58.852436 222.895706,15.029500 
	C222.877304,10.442218 224.296661,8.852001 228.731506,8.949071 
	C236.908630,9.128051 245.098282,9.181067 253.270874,8.918281 
	C256.973053,8.799237 259.033722,10.587600 260.680481,13.380465 
	C270.596588,30.197824 280.478790,47.035187 290.391174,63.854744 
	C297.382568,75.717934 304.403870,87.563522 311.999939,100.411720 
	C311.999939,95.485741 311.999939,91.600479 311.999939,87.715225 
	C311.999939,63.220642 312.051239,38.725822 311.936493,14.231778 
	C311.921783,11.090896 312.605408,9.170798 316.016785,9.003471 
	C322.611908,8.679984 329.203979,8.142248 335.801270,8.073489 
	C339.723663,8.032609 343.658936,8.667197 347.578522,9.089570 
	C350.846680,9.441742 351.038330,11.698208 351.007935,14.411661 
	C350.623779,48.708256 350.263885,83.005363 350.023285,117.303223 
	C349.892365,135.964859 349.913605,154.628876 350.071777,173.290070 
	C350.104187,177.112106 349.406830,179.184540 345.007263,179.067688 
	C336.504730,178.841858 327.981110,179.216278 319.492798,178.799728 
	C317.608917,178.707275 315.173309,176.765549 314.110168,175.001328 
	C297.558319,147.534607 281.194000,119.954872 264.766144,92.413330 
	C264.183044,91.435745 263.390930,90.582802 262.312195,89.168083 
	C262.312195,118.822502 262.312195,148.093185 262.312195,177.605698 
	C249.073578,181.086884 236.311401,180.802490 223.000641,177.816010 
	C223.000641,167.737793 223.000641,157.618896 223.000641,147.000000 
z"/>
<path fill="#094192" opacity="1.000000" stroke="none" 
	d="
M108.031136,63.000000 
	C108.031136,45.186687 108.031136,27.873379 108.031136,10.244396 
	C122.406502,7.374763 136.494400,7.181469 150.808777,10.170058 
	C150.876862,11.431717 150.992020,12.573793 150.992340,13.715902 
	C151.001633,47.215767 151.446106,80.724190 150.804688,114.211777 
	C150.498978,130.173111 148.112747,146.059708 138.671967,159.875198 
	C130.530182,171.789749 118.517433,177.552689 105.031898,179.792572 
	C91.169556,182.095062 77.025299,182.279877 63.173340,178.964249 
	C40.327663,173.495865 28.529638,159.810120 24.259392,137.937271 
	C21.851627,125.604332 21.316914,112.781853 21.136292,100.162758 
	C20.709524,70.346672 20.999273,40.520329 20.999273,10.265563 
	C35.347870,7.226821 49.504147,7.197149 63.900383,10.303232 
	C63.900383,24.743874 63.888336,38.729687 63.903194,52.715473 
	C63.925686,73.881798 63.809620,95.050377 64.116463,116.212723 
	C64.188515,121.182465 65.079773,126.351608 66.705307,131.044098 
	C70.226402,141.208572 78.379257,145.276459 89.227486,143.108383 
	C101.684464,140.618790 106.011627,136.366638 106.914085,124.262810 
	C107.688828,113.871964 107.814484,103.425514 107.994675,92.999634 
	C108.164589,83.169151 108.031136,73.333420 108.031136,63.000000 
z"/>
<path fill="#084192" opacity="1.000000" stroke="none" 
	d="
M165.001251,71.000000 
	C165.001251,50.529335 165.001251,30.558672 165.001251,10.240108 
	C175.992432,8.178970 186.786819,6.707335 197.769989,8.932957 
	C197.931671,8.965718 198.103088,8.946954 198.267929,8.968111 
	C201.356461,9.364528 206.060822,8.718491 207.152756,10.407471 
	C208.775909,12.918083 207.978027,17.080242 207.980026,20.539658 
	C208.009262,71.004364 208.000092,121.469101 208.000092,171.933823 
	C208.000092,173.752106 208.000107,175.570374 208.000107,177.724640 
	C193.713837,181.084671 179.615128,180.674393 165.001251,177.854858 
	C165.001251,142.381134 165.001251,106.940567 165.001251,71.000000 
z"/>
<path fill="#1C9D93" opacity="1.000000" stroke="none" 
	d="
M112.000000,186.004364 
	C191.462952,186.004364 270.425903,186.004364 349.694336,186.004364 
	C349.694336,189.041946 349.694336,191.762939 349.694336,194.745544 
	C240.205399,194.745544 130.818939,194.745544 21.216034,194.745544 
	C21.216034,191.909180 21.216034,189.301926 21.216034,186.004364 
	C51.319160,186.004364 81.409576,186.004364 112.000000,186.004364 
z"/>
<path fill="#173E95" opacity="1.000000" stroke="none" 
	d="
M248.724106,273.307892 
	C249.705765,274.956787 250.466751,276.302887 251.893082,278.825928 
	C251.893082,271.837402 251.893082,266.269592 251.893082,260.353455 
	C255.239227,260.353455 258.298553,260.353455 262.000488,260.353455 
	C262.000488,270.648010 262.141510,281.070923 261.909515,291.485504 
	C261.844849,294.387115 263.984924,298.566315 259.262817,299.843872 
	C254.510559,301.129608 252.151993,297.709930 250.094879,294.203430 
	C247.634979,290.010406 245.200516,285.802429 241.998581,280.301300 
	C241.998581,286.409485 241.867157,291.234283 242.041138,296.048065 
	C242.174622,299.741211 239.682755,299.935272 237.196106,299.947296 
	C234.807693,299.958893 231.984436,300.258453 231.992752,296.442444 
	C232.018799,284.485809 232.002319,272.529114 232.002319,260.331024 
	C237.330048,259.526123 241.901962,259.101837 244.072830,265.436554 
	C245.001770,268.147186 246.994217,270.493347 248.724106,273.307892 
z"/>
<path fill="#173F95" opacity="1.000000" stroke="none" 
	d="
M279.062531,237.733383 
	C271.906799,246.568375 269.460541,247.214523 249.303253,245.848938 
	C249.303253,233.142639 249.303253,220.409515 249.303253,207.536209 
	C255.907608,205.919937 262.492065,205.505386 269.294220,207.646423 
	C276.483704,209.909348 280.085754,215.138992 280.767029,221.866043 
	C281.279083,226.922180 279.765381,232.183472 279.062531,237.733383 
M269.211182,220.715851 
	C267.507172,216.543167 264.327484,215.572708 260.108185,216.206085 
	C260.108185,223.516373 260.108185,230.453735 260.108185,237.398422 
	C268.354004,236.126755 270.008270,234.356827 269.990570,226.770798 
	C269.986328,224.954483 269.862488,223.138428 269.211182,220.715851 
z"/>
<path fill="#163E94" opacity="1.000000" stroke="none" 
	d="
M67.450333,228.670273 
	C67.073448,234.242676 67.073448,239.726883 67.073448,245.605438 
	C63.813194,245.605438 60.758301,245.605438 57.342369,245.605438 
	C57.342369,233.128479 57.342369,220.410141 57.342369,207.309662 
	C61.840527,206.845734 66.236046,205.581635 68.662018,211.941132 
	C70.394249,216.481995 73.603409,220.459473 76.837852,225.823151 
	C76.837852,218.885773 76.837852,213.324768 76.837852,207.382889 
	C80.164398,207.382889 83.222328,207.382889 86.648201,207.382889 
	C86.648201,219.860794 86.648201,232.578293 86.648201,245.334961 
	C79.261734,247.078873 78.164230,246.571304 74.451187,239.951202 
	C72.305908,236.126328 70.039246,232.369522 67.450333,228.670273 
z"/>
<path fill="#173F95" opacity="1.000000" stroke="none" 
	d="
M345.875458,212.154816 
	C352.715759,219.963455 352.562347,232.473892 347.471313,239.310730 
	C340.393677,248.815414 329.685577,247.769409 319.230835,245.798706 
	C319.230835,232.775909 319.230835,220.058624 319.230835,207.390198 
	C328.770752,205.559570 337.895233,204.851074 345.875458,212.154816 
M329.000854,233.245193 
	C329.000854,234.729630 329.000854,236.214066 329.000854,237.763306 
	C337.916412,235.822556 341.297272,231.550262 339.971436,224.215012 
	C338.920441,218.400314 335.261963,215.702286 329.000824,216.440445 
	C329.000824,221.692688 329.000824,226.995331 329.000854,233.245193 
z"/>
<path fill="#163E95" opacity="1.000000" stroke="none" 
	d="
M53.268921,289.771393 
	C51.202461,286.516907 49.397640,283.529663 47.000244,279.561646 
	C47.000244,285.745331 46.858280,290.830048 47.048607,295.902283 
	C47.182411,299.468140 44.990673,299.997528 42.357262,299.957031 
	C39.943169,299.919861 37.911152,299.457184 37.948406,296.111816 
	C38.079960,284.298798 37.999607,272.483429 37.999607,260.566711 
	C43.256168,259.031158 47.052372,259.635498 49.501705,265.236908 
	C51.543072,269.905334 54.616020,274.122681 57.865101,279.608643 
	C57.865101,272.476257 57.865101,266.587372 57.865101,260.351929 
	C60.894733,260.351929 63.623013,260.351929 67.000450,260.351929 
	C67.000450,268.463409 67.000412,276.729553 67.000465,284.995697 
	C67.000481,288.328461 67.228760,291.683533 66.906090,294.984772 
	C66.740891,296.674988 65.507423,299.690277 64.899307,299.654938 
	C62.537659,299.517639 59.671722,299.000244 58.048977,297.490112 
	C56.003117,295.586243 54.989506,292.573181 53.268921,289.771393 
z"/>
<path fill="#173F95" opacity="1.000000" stroke="none" 
	d="
M146.354309,299.262146 
	C138.791245,300.684357 137.999939,300.075653 137.999100,293.340332 
	C137.997726,282.391205 137.998734,271.442047 137.998734,260.009583 
	C143.642548,260.009583 148.966370,259.575531 154.181000,260.143616 
	C158.542236,260.618744 162.046356,263.241180 163.806702,267.547180 
	C166.215378,273.439117 164.308243,278.321198 159.929474,282.735809 
	C162.647293,287.879028 165.383560,293.057159 168.202911,298.392548 
	C166.543884,298.988678 165.220688,299.839050 163.874756,299.876678 
	C160.007233,299.984680 156.248749,300.296936 154.805115,294.941284 
	C153.600021,290.470612 151.054993,286.361115 149.750122,283.506531 
	C151.320084,278.728577 152.779953,275.106567 153.484192,271.343201 
	C153.603088,270.707825 150.464279,269.462891 148.001450,268.010651 
	C148.001450,277.836761 148.059631,286.310211 147.944565,294.781281 
	C147.925247,296.204651 147.156494,297.617889 146.354309,299.262146 
z"/>
<path fill="#173E94" opacity="1.000000" stroke="none" 
	d="
M113.001045,277.922302 
	C113.004723,280.736511 112.399292,283.298370 113.178810,285.328461 
	C114.002808,287.474396 115.972046,290.447296 117.751419,290.679413 
	C120.856499,291.084473 122.183762,288.502197 122.079430,285.061646 
	C121.833183,276.941193 122.000404,268.808228 122.000404,260.340851 
	C125.654610,260.340851 129.038254,260.340851 133.423859,260.340851 
	C132.946838,270.337921 132.957184,280.385040 131.832458,290.303436 
	C130.998276,297.659637 124.601891,300.883667 115.156448,299.997498 
	C108.120331,299.337402 103.087616,294.307129 103.021286,287.623077 
	C102.932281,278.654663 102.999237,269.684692 102.999237,260.357788 
	C106.212090,260.357788 109.271553,260.357788 113.001053,260.357788 
	C113.001053,265.930084 113.001053,271.683105 113.001045,277.922302 
z"/>
<path fill="#173E95" opacity="1.000000" stroke="none" 
	d="
M41.022171,229.789398 
	C41.027626,222.158508 41.027626,215.001389 41.027626,207.421951 
	C44.570236,207.421951 47.955532,207.421951 52.418022,207.421951 
	C51.942028,217.399078 51.931507,227.617020 50.801102,237.709549 
	C50.078106,244.164597 40.780865,248.528625 33.551861,246.783676 
	C24.936043,244.703979 22.005604,240.935440 21.999838,231.907684 
	C21.994646,223.778030 21.998745,215.648361 21.998745,207.260956 
	C25.403818,207.260956 28.465639,207.260956 32.001259,207.260956 
	C32.001259,215.167160 31.980175,222.949203 32.011642,230.731003 
	C32.024220,233.841995 32.297958,236.767822 36.497162,237.020920 
	C41.976185,237.351120 40.807926,233.378876 41.022171,229.789398 
z"/>
<path fill="#173F95" opacity="1.000000" stroke="none" 
	d="
M195.836212,225.444168 
	C192.946259,228.046112 192.727676,230.310547 194.665482,233.448608 
	C197.027969,237.274323 198.695419,241.529236 200.682281,245.637390 
	C200.154236,245.818192 200.012863,245.873886 199.867416,245.915359 
	C189.636261,248.833588 186.740280,241.817383 184.013046,234.354324 
	C182.721237,230.819336 180.722031,227.857986 184.852402,224.347839 
	C188.142578,221.551743 186.187103,216.990295 181.204285,215.062866 
	C181.204285,225.247314 181.204285,235.288025 181.204285,245.662613 
	C177.751450,245.662613 174.691422,245.662613 171.308975,245.662613 
	C171.308975,233.052765 171.308975,220.332367 171.308975,207.411377 
	C179.749329,205.350586 188.191940,204.649780 194.871826,211.603424 
	C198.501877,215.382248 197.458481,220.414246 195.836212,225.444168 
z"/>
<path fill="#173F95" opacity="1.000000" stroke="none" 
	d="
M171.287933,292.486450 
	C165.571213,281.562561 167.836761,269.441223 174.782486,263.641418 
	C178.965881,260.148193 190.805862,258.118958 195.288498,261.122955 
	C196.388962,261.860413 196.054291,265.092072 195.967224,267.159698 
	C195.858475,269.742004 194.533752,270.322784 191.929367,269.486267 
	C187.527542,268.072357 183.404648,268.590302 180.609772,272.918274 
	C178.161102,276.710175 178.343445,284.832672 181.380630,287.726379 
	C183.143158,289.405640 185.672745,290.279877 188.999481,292.162964 
	C188.999481,287.536469 189.082962,284.156189 188.977112,280.781891 
	C188.860214,277.055786 191.511627,277.078552 193.972626,277.037170 
	C196.469635,276.995209 199.063660,277.030762 199.016479,280.713043 
	C198.952423,285.711090 199.104172,290.714508 198.916733,295.706360 
	C198.875977,296.791443 198.044525,298.419128 197.147049,298.810516 
	C188.917160,302.399902 177.927734,299.743347 171.287933,292.486450 
z"/>
<path fill="#173F95" opacity="1.000000" stroke="none" 
	d="
M311.843048,246.001205 
	C309.559021,246.001297 307.729492,246.001297 305.620331,246.001297 
	C304.965607,243.756790 304.307556,241.500916 303.667847,239.307983 
	C300.182983,239.307983 296.856506,239.307983 293.462982,239.307983 
	C292.895660,241.381363 292.305145,243.539474 291.687256,245.797638 
	C288.492828,245.797638 285.379822,245.797638 281.461487,245.797638 
	C285.519379,232.756607 289.451935,220.118408 293.436279,207.313797 
	C293.678528,207.255096 294.152740,207.051468 294.632690,207.037018 
	C304.045898,206.753357 304.089661,206.743958 307.021667,215.958038 
	C310.108978,225.660110 313.101410,235.392410 316.282349,245.582581 
	C314.722900,245.746368 313.510223,245.873734 311.843048,246.001205 
M296.932770,227.302597 
	C296.604706,228.398087 296.276672,229.493591 295.815002,231.035248 
	C297.998169,230.918518 299.405792,230.843246 301.363647,230.738571 
	C300.427643,227.005905 299.590515,223.667542 298.532837,219.449539 
	C297.882111,222.415176 297.437531,224.441315 296.932770,227.302597 
z"/>
<path fill="#163E94" opacity="1.000000" stroke="none" 
	d="
M204.000015,281.998596 
	C204.000015,274.525665 204.000015,267.552460 204.000015,260.291687 
	C212.019943,260.291687 219.748016,260.291687 227.739197,260.291687 
	C227.739197,263.119263 227.739197,265.844238 227.739197,268.873291 
	C223.627502,268.873291 219.677719,268.873291 215.371643,268.873291 
	C215.198944,270.527557 215.053177,271.923920 214.858444,273.789246 
	C218.191162,273.789246 221.278244,273.789246 224.682526,273.789246 
	C224.682526,277.281891 224.682526,280.347931 224.682526,283.889160 
	C221.631119,283.889160 218.555862,283.889160 215.241425,283.889160 
	C215.241425,286.084625 215.241425,287.815582 215.241425,290.005035 
	C219.445007,290.005035 223.533859,290.005035 227.799713,290.005035 
	C227.799713,293.070099 227.799713,295.686401 227.799713,298.653931 
	C220.126465,298.653931 212.388107,298.653931 204.000015,298.653931 
	C204.000015,293.356018 204.000015,287.927185 204.000015,281.998596 
z"/>
<path fill="#163E94" opacity="1.000000" stroke="none" 
	d="
M317.999725,278.030884 
	C318.000000,280.109406 318.000000,281.726074 318.000000,283.761597 
	C314.211456,283.761597 310.952972,283.761597 307.244476,283.761597 
	C307.140167,285.893005 307.055267,287.628601 306.947998,289.821045 
	C311.566803,289.821045 315.978546,289.821045 320.693115,289.821045 
	C320.693115,292.978577 320.693115,295.705200 320.693115,298.720184 
	C312.986725,298.720184 305.261841,298.720184 297.266907,298.720184 
	C297.266907,285.948761 297.266907,273.234802 297.266907,260.003174 
	C304.112061,260.003174 310.879272,260.054962 317.645172,259.982178 
	C321.234406,259.943573 320.954071,262.372498 321.017090,264.757568 
	C321.080627,267.161774 320.808502,269.106110 317.663940,269.018616 
	C314.351074,268.926422 311.033661,268.997955 307.355377,268.997955 
	C307.200165,270.540558 307.059540,271.938416 306.851990,274.001740 
	C309.557220,274.001740 312.006500,274.175812 314.420044,273.956451 
	C317.266388,273.697754 318.455688,274.728302 317.999725,278.030884 
z"/>
<path fill="#173F95" opacity="1.000000" stroke="none" 
	d="
M131.025909,236.044205 
	C130.656464,237.537323 130.319763,238.622391 129.978073,239.705902 
	C128.135590,245.548416 124.094650,247.781982 118.380432,245.901520 
	C117.509018,245.614761 116.596169,244.493713 116.299133,243.567245 
	C112.452461,231.569244 108.713875,219.536621 104.964912,207.566742 
	C105.351845,207.356537 105.485252,207.227737 105.629951,207.213486 
	C115.263634,206.263397 115.303688,206.251892 118.153664,215.509430 
	C119.678619,220.462906 121.038071,225.467316 122.628479,230.991470 
	C125.002884,222.836014 127.266617,215.060715 129.544357,207.237274 
	C132.964249,207.237274 136.388809,207.237274 140.325378,207.237274 
	C137.156586,216.945694 134.106445,226.290558 131.025909,236.044205 
z"/>
<path fill="#173F95" opacity="1.000000" stroke="none" 
	d="
M213.778503,206.667786 
	C218.728119,206.828323 223.336334,207.237885 228.184708,207.668777 
	C227.134842,211.403366 226.358139,214.166306 225.543091,217.065582 
	C221.134766,216.201859 216.535019,212.122940 212.616898,218.507584 
	C216.679184,220.663345 220.661652,222.425568 224.268982,224.765991 
	C231.247391,229.293564 230.501144,240.003235 223.410950,244.261017 
	C217.191086,247.996124 210.884476,247.296539 204.516495,245.516815 
	C203.407211,245.206802 202.188385,243.012512 202.156616,241.661789 
	C202.110031,239.680893 203.088272,237.675919 203.501678,236.153259 
	C207.694305,236.453735 211.502991,236.848999 215.316818,236.907135 
	C216.182770,236.920349 217.798782,235.745621 217.783188,235.151474 
	C217.754440,234.057129 217.036789,232.548904 216.130173,232.001266 
	C214.350861,230.926468 212.223145,230.444138 210.278534,229.624268 
	C204.710434,227.276764 201.955887,221.884491 203.014832,215.510040 
	C203.806473,210.744568 207.571487,207.640289 213.778503,206.667786 
z"/>
<path fill="#173F95" opacity="1.000000" stroke="none" 
	d="
M79.343475,299.997131 
	C76.284286,299.255615 73.672432,298.517212 70.835640,297.715210 
	C71.287193,295.956177 71.611023,294.566345 72.004860,293.196594 
	C72.399033,291.825684 72.863152,290.474854 73.214500,289.372742 
	C77.849121,289.886902 82.167992,290.366058 86.438248,290.839813 
	C88.068199,284.409485 83.543320,284.186554 80.743584,283.132263 
	C76.593910,281.569672 73.662170,279.192139 72.451706,274.899841 
	C70.809486,269.076569 74.111244,260.290863 82.934929,260.063263 
	C87.466705,259.946320 92.015854,260.502838 97.236717,260.792786 
	C96.724937,263.546509 96.732986,265.754150 95.833313,267.491730 
	C95.301773,268.518341 93.334618,269.297729 92.011749,269.299652 
	C90.130745,269.302368 88.240379,268.118927 86.369926,268.160400 
	C85.241455,268.185394 83.574677,269.376404 83.219971,270.410553 
	C82.959213,271.170776 84.210045,272.840485 85.190514,273.538361 
	C86.470619,274.449493 88.155640,274.784698 89.654800,275.396271 
	C97.058067,278.416443 99.398888,282.697479 97.982475,290.601227 
	C97.099083,295.530701 91.532501,299.672150 85.275955,299.986481 
	C83.451950,300.078125 81.619438,300.000305 79.343475,299.997131 
z"/>
<path fill="#173F95" opacity="1.000000" stroke="none" 
	d="
M325.588013,298.727325 
	C324.661743,297.699249 323.567200,296.768372 323.671112,295.999481 
	C323.990967,293.633179 324.769165,291.328827 325.430176,288.764038 
	C328.222290,289.556610 330.712585,290.838715 333.173492,290.784576 
	C335.233063,290.739288 337.258209,289.132080 339.298584,288.216492 
	C337.921875,286.802490 336.794861,284.842560 335.121490,284.077118 
	C330.144684,281.800751 325.448334,279.953613 324.531158,273.287964 
	C323.635132,266.775909 327.895477,260.226959 334.604431,260.065582 
	C339.305115,259.952545 344.020874,260.466644 349.443939,260.736145 
	C348.834412,263.622589 348.707581,265.766083 347.860474,267.571655 
	C347.448669,268.449524 345.730469,268.843109 344.526215,269.172943 
	C343.788269,269.375031 342.783600,269.266846 342.105621,268.907532 
	C339.399506,267.473328 336.593292,267.408051 335.507080,270.328125 
	C335.197021,271.161713 338.404663,274.171387 340.443909,274.853210 
	C347.360229,277.165680 352.123535,281.826050 349.988800,291.253265 
	C348.878479,296.156555 343.694489,299.854706 337.196808,299.927521 
	C333.458160,299.969421 329.711151,299.266357 325.588013,298.727325 
z"/>
<path fill="#163E94" opacity="1.000000" stroke="none" 
	d="
M143.000015,211.153839 
	C142.871185,208.576996 142.744949,206.821167 145.910828,206.932999 
	C152.375046,207.161331 158.852982,207.001389 165.661682,207.001389 
	C165.661682,209.919800 165.661682,212.646240 165.661682,215.837341 
	C161.713821,215.837341 157.639450,215.837341 153.290146,215.837341 
	C153.290146,217.670120 153.290146,219.060684 153.290146,220.578690 
	C157.001022,222.456696 165.273331,217.504364 163.787949,227.303802 
	C163.638214,228.291626 162.398544,229.482452 161.390503,229.875076 
	C160.232574,230.326080 158.769211,229.995636 157.438492,229.999420 
	C156.137070,230.003113 154.835632,230.000229 153.176697,230.000229 
	C153.108215,231.404007 153.036026,232.511490 153.005600,233.620132 
	C152.979202,234.581146 153.000122,235.543488 153.000122,237.000793 
	C156.606949,237.000793 159.896530,237.147278 163.167343,236.962219 
	C166.913681,236.750259 166.992355,239.042984 167.043167,241.779022 
	C167.095688,244.606140 166.330917,246.123276 163.125122,246.046021 
	C156.652191,245.889984 150.172836,245.999466 142.999939,245.999466 
	C142.999939,234.436722 142.999939,223.036865 143.000015,211.153839 
z"/>
<path fill="#173E95" opacity="1.000000" stroke="none" 
	d="
M288.851807,260.000031 
	C290.778717,260.086945 292.222809,260.173859 293.821564,260.270050 
	C293.821564,263.206665 293.821564,265.812622 293.821564,268.871216 
	C290.999634,268.871216 288.263184,268.871216 285.108276,268.871216 
	C285.108276,279.059875 285.108276,288.811035 285.108276,299.275208 
	C281.247101,299.275208 277.809265,299.275208 273.988922,299.275208 
	C273.988922,288.994171 273.988922,279.228912 273.988922,269.018311 
	C270.881531,269.018311 268.145905,269.018311 265.210693,269.018311 
	C265.210693,265.954559 265.210693,263.340271 265.210693,260.000000 
	C272.869171,260.000000 280.619110,260.000000 288.851807,260.000031 
z"/>
<path fill="#163E94" opacity="1.000000" stroke="none" 
	d="
M238.027695,206.999756 
	C240.138931,206.999756 241.775070,206.999756 243.704071,206.999756 
	C243.704071,219.970795 243.704071,232.670654 243.704071,245.686371 
	C240.371323,245.686371 236.984650,245.686371 233.295624,245.686371 
	C233.295624,233.010773 233.295624,220.313431 233.295624,207.257767 
	C234.690750,207.173203 236.121658,207.086487 238.027695,206.999756 
z"/>
<path fill="#1F449D" opacity="1.000000" stroke="none" 
	d="
M91.980164,240.878357 
	C91.980148,229.441803 91.980148,218.493423 91.980148,207.263885 
	C95.361450,207.263885 98.440018,207.263885 102.072594,207.263885 
	C102.072594,220.033173 102.072594,232.826309 102.072594,245.822769 
	C98.714890,245.822769 95.612404,245.822769 92.200813,245.822769 
	C92.123474,244.260651 92.051826,242.813599 91.980164,240.878357 
z"/>
<path fill="#163E94" opacity="1.000000" stroke="none" 
	d="
M22.001526,263.197754 
	C22.789326,261.812866 23.471554,260.282013 24.384418,260.129211 
	C26.640669,259.751617 29.002584,260.005341 32.000252,260.005341 
	C32.000252,265.902405 32.000256,271.657104 32.000252,277.411774 
	C32.000252,283.069397 31.753159,288.741486 32.083221,294.379791 
	C32.320995,298.441620 30.906330,300.056763 26.875116,300.049103 
	C22.626793,300.041046 21.840261,297.907990 21.923992,294.128479 
	C22.148748,283.983032 22.000828,273.829315 22.001526,263.197754 
z"/>
<path fill="#FFFFFF" opacity="1.000000" stroke="none" 
	d="
M269.502441,221.019043 
	C269.862488,223.138428 269.986328,224.954483 269.990570,226.770798 
	C270.008270,234.356827 268.354004,236.126755 260.108185,237.398422 
	C260.108185,230.453735 260.108185,223.516373 260.108185,216.206085 
	C264.327484,215.572708 267.507172,216.543167 269.502441,221.019043 
z"/>
<path fill="#FFFFFF" opacity="1.000000" stroke="none" 
	d="
M329.000854,232.771576 
	C329.000824,226.995331 329.000824,221.692688 329.000824,216.440445 
	C335.261963,215.702286 338.920441,218.400314 339.971436,224.215012 
	C341.297272,231.550262 337.916412,235.822556 329.000854,237.763306 
	C329.000854,236.214066 329.000854,234.729630 329.000854,232.771576 
z"/>
<path fill="#FFFFFF" opacity="1.000000" stroke="none" 
	d="
M296.962860,226.885025 
	C297.437531,224.441315 297.882111,222.415176 298.532837,219.449539 
	C299.590515,223.667542 300.427643,227.005905 301.363647,230.738571 
	C299.405792,230.843246 297.998169,230.918518 295.815002,231.035248 
	C296.276672,229.493591 296.604706,228.398087 296.962860,226.885025 
z"/>
</svg>